<?xml version="1.0" standalone="no"?>
<!DOCTYPE svg PUBLIC "-//W3C//DTD SVG 20010904//EN"
 "http://www.w3.org/TR/2001/REC-SVG-20010904/DTD/svg10.dtd">
<svg version="1.0" xmlns="http://www.w3.org/2000/svg"
 width="816.000000pt" height="816.000000pt" viewBox="0 0 816.000000 816.000000"
 preserveAspectRatio="xMidYMid meet">
<metadata>
Created by potrace 1.11, written by Peter Selinger 2001-2013
</metadata>
<g transform="translate(0.000000,816.000000) scale(0.100000,-0.100000)"
fill="#000000" stroke="none">
<path d="M3430 6783 c-58 -20 -107 -55 -148 -107 -17 -22 -210 -279 -428 -571
-218 -291 -405 -541 -415 -555 -24 -30 -1135 -1517 -1154 -1543 -12 -18 -31
-19 -260 -18 -265 1 -298 -4 -329 -51 -27 -41 -30 -85 -11 -129 32 -71 41 -73
370 -74 170 0 304 3 324 9 29 9 65 51 244 291 115 154 218 291 228 305 78 102
143 189 157 208 9 13 58 78 108 145 421 561 1347 1802 1356 1816 29 47 72 47
107 1 16 -22 153 -467 176 -570 1 -8 11 -42 21 -75 10 -33 19 -64 20 -70 1 -5
10 -37 19 -70 10 -33 17 -60 16 -60 -1 0 2 -13 8 -28 6 -16 20 -61 30 -100 11
-40 90 -317 176 -617 86 -300 165 -577 176 -617 57 -214 92 -289 175 -382 91
-101 214 -162 359 -178 39 -5 507 -8 1040 -8 743 1 975 3 992 13 40 22 66 70
65 120 -1 39 -7 52 -37 82 l-35 35 -303 2 c-166 1 -334 3 -373 3 l-72 0 -148
177 c-82 97 -191 226 -242 287 -52 61 -101 120 -110 131 -67 80 -191 226 -216
255 -17 20 -50 58 -72 85 -117 141 -442 527 -484 575 -26 30 -132 156 -235
280 -104 124 -191 227 -194 230 -4 3 -26 30 -51 60 -25 30 -47 57 -50 60 -4 3
-28 32 -56 65 -27 33 -59 71 -71 85 -12 14 -89 106 -173 205 -193 230 -225
263 -279 287 -58 26 -162 32 -221 11z"/>
<path d="M771 5643 c-90 -31 -107 -158 -28 -217 28 -21 34 -21 685 -22 716 -2
701 -3 738 54 24 37 23 111 -2 145 -38 52 -31 52 -718 52 -476 0 -649 -3 -675
-12z"/>
<path d="M5081 5638 c-62 -31 -85 -99 -56 -162 29 -60 55 -70 185 -72 133 -2
169 8 200 58 35 58 24 119 -29 165 -29 25 -25 25 -165 27 -78 1 -108 -2 -135
-16z"/>
<path d="M5652 5648 c-57 -15 -97 -91 -81 -153 5 -17 22 -44 39 -60 l31 -30
945 -1 c871 -1 947 0 976 16 33 17 68 71 68 104 0 39 -40 104 -73 117 -26 11
-206 14 -954 14 -507 0 -935 -3 -951 -7z"/>
<path d="M1185 4820 c-84 -9 -125 -51 -125 -126 0 -47 26 -90 66 -109 48 -23
365 -22 404 1 85 51 80 176 -9 224 -25 13 -243 20 -336 10z"/>
<path d="M5780 4818 c-90 -11 -137 -81 -109 -162 9 -25 27 -49 48 -63 33 -22
40 -23 288 -23 242 0 256 1 284 21 59 41 74 113 37 169 -39 58 -58 62 -287 64
-113 0 -231 -2 -261 -6z"/>
<path d="M6579 4818 c-60 -10 -100 -52 -106 -109 -5 -53 11 -86 56 -116 l34
-23 471 0 c449 0 473 1 503 20 41 24 55 51 55 105 1 52 -20 88 -64 111 -29 15
-82 17 -470 18 -240 1 -456 -2 -479 -6z"/>
<path d="M742 4800 c-40 -25 -61 -70 -55 -119 11 -77 67 -118 150 -108 64 7
113 58 113 117 0 46 -33 103 -68 120 -37 16 -104 12 -140 -10z"/>
<path d="M7071 3979 c-25 -10 -70 -56 -72 -74 -1 -5 -3 -24 -5 -40 -4 -36 24
-86 62 -112 23 -15 53 -17 198 -18 186 -1 217 3 253 37 27 25 46 87 38 121 -8
31 -46 74 -76 86 -32 12 -367 12 -398 0z"/>
<path d="M1340 3072 l-55 -3 -315 -791 c-173 -434 -316 -794 -318 -798 -2 -5
96 -8 216 -8 l219 -1 59 155 c48 127 62 154 79 155 90 4 595 0 603 -5 5 -3 13
-18 16 -33 4 -16 12 -39 18 -53 5 -14 27 -68 47 -120 l37 -95 231 -2 232 -2
-18 47 c-11 26 -67 169 -126 317 -59 149 -113 284 -120 300 -7 17 -75 185
-150 375 -191 484 -216 544 -225 554 -8 8 -318 14 -430 8z m270 -729 c49 -125
87 -229 86 -230 -2 -3 -204 -5 -307 -4 l-57 1 74 193 c41 105 79 201 84 212 5
11 12 30 15 43 4 13 9 21 12 18 3 -2 45 -107 93 -233z"/>
<path d="M2723 3070 c-18 -5 -18 -38 -18 -800 l0 -795 215 0 215 0 0 248 0
247 85 0 c323 1 436 16 564 75 111 51 206 148 246 252 29 78 33 98 36 214 3
84 -1 123 -17 179 -56 202 -215 327 -468 370 -73 12 -818 21 -858 10z m787
-359 c96 -27 140 -87 140 -191 0 -67 -18 -112 -59 -148 -47 -40 -86 -47 -276
-47 l-180 0 -1 195 c0 107 1 197 2 200 5 11 330 3 374 -9z"/>
<path d="M4403 3070 c-18 -5 -18 -38 -17 -795 1 -434 2 -793 3 -797 0 -3 283
-6 628 -5 l628 2 0 178 1 177 -418 0 -419 0 3 138 3 137 310 0 310 0 0 175 0
175 -300 2 c-165 1 -306 2 -313 2 -10 1 -12 30 -10 129 l3 127 397 0 c218 0
400 3 404 7 11 12 11 348 -1 349 -59 3 -1199 3 -1212 -1z"/>
<path d="M5960 3070 c-19 -4 -11 -18 74 -135 53 -71 102 -139 110 -150 8 -11
88 -121 178 -245 90 -124 167 -230 171 -237 7 -10 -51 -100 -110 -173 -17 -21
-450 -597 -474 -631 l-20 -28 240 0 239 1 83 117 c45 64 127 178 182 254 l99
137 88 -122 c49 -68 93 -127 97 -133 5 -5 48 -65 96 -132 l88 -121 255 0 c194
0 253 2 246 11 -18 24 -389 534 -452 622 -36 50 -67 92 -70 95 -13 12 -80 108
-80 115 0 4 124 172 275 374 151 201 275 370 275 375 0 7 -241 11 -433 7 -37
-1 -20 20 -214 -251 -69 -96 -128 -179 -133 -183 -4 -5 -21 11 -39 35 -17 24
-39 54 -48 67 -10 13 -68 93 -128 179 l-110 154 -232 2 c-128 0 -241 -1 -253
-4z"/>
</g>
</svg>
