<?xml version="1.0" standalone="no"?>
<!DOCTYPE svg PUBLIC "-//W3C//DTD SVG 20010904//EN"
 "http://www.w3.org/TR/2001/REC-SVG-20010904/DTD/svg10.dtd">
<svg version="1.0" xmlns="http://www.w3.org/2000/svg"
 width="1201.000000pt" height="1201.000000pt" viewBox="0 0 1201.000000 1201.000000"
 preserveAspectRatio="xMidYMid meet">
<metadata>
Created by potrace 1.11, written by Peter Selinger 2001-2013
</metadata>
<g transform="translate(0.000000,1201.000000) scale(0.100000,-0.100000)"
fill="#000000" stroke="none">
<path d="M5717 11984 c-1 -1 -56 -4 -122 -8 -66 -4 -133 -8 -150 -10 -16 -2
-57 -7 -90 -10 -149 -17 -344 -54 -585 -111 -54 -13 -271 -80 -350 -108 -764
-275 -1423 -743 -1932 -1371 -49 -61 -95 -118 -102 -127 -33 -40 -189 -273
-238 -354 -117 -194 -218 -394 -298 -590 -29 -71 -58 -143 -65 -160 -24 -56
-105 -318 -131 -417 -10 -42 -15 -65 -20 -88 -3 -14 -11 -52 -19 -85 -21 -85
-56 -300 -69 -420 -3 -27 -8 -68 -11 -90 -15 -137 -18 -701 -19 -4168 l-1
-3847 333 0 c182 0 332 3 333 8 0 4 2 1778 4 3942 1 2164 5 3948 8 3963 3 15
8 60 12 100 4 40 8 79 10 87 1 8 6 40 10 70 3 30 10 71 15 90 5 19 11 49 13
65 28 175 124 490 219 715 319 755 880 1380 1613 1796 34 20 196 100 285 142
219 102 523 199 790 251 129 25 143 28 216 36 33 4 68 9 79 11 136 26 730 25
864 -1 10 -2 41 -7 68 -10 79 -11 203 -34 278 -50 39 -9 79 -18 90 -20 57 -12
252 -70 340 -102 833 -296 1524 -867 1970 -1628 75 -127 181 -342 230 -465 20
-52 41 -104 46 -115 57 -130 162 -536 184 -710 10 -78 18 -131 20 -146 25
-136 25 -704 0 -834 -2 -11 -7 -44 -10 -73 -7 -68 -14 -117 -26 -170 -5 -23
-12 -59 -15 -80 -13 -84 -79 -324 -125 -459 -122 -353 -287 -670 -503 -967
-424 -581 -995 -1023 -1661 -1282 -203 -80 -507 -165 -670 -189 -11 -2 -69
-10 -130 -19 -60 -10 -123 -19 -140 -21 -47 -7 -291 -19 -385 -19 -149 0 -357
14 -486 33 l-52 8 0 -331 1 -331 76 -123 c42 -67 84 -135 93 -150 9 -15 23
-37 30 -50 7 -12 117 -189 243 -392 127 -204 235 -378 240 -388 10 -18 121
-198 202 -327 24 -38 63 -101 87 -140 24 -38 101 -163 172 -278 71 -114 136
-220 145 -235 72 -121 704 -1140 715 -1151 10 -11 72 -14 333 -14 177 0 323 2
326 5 5 5 -43 86 -179 305 -67 108 -876 1416 -901 1456 -11 18 -33 55 -50 83
-16 27 -33 51 -37 52 -4 2 -8 7 -8 12 0 4 -17 35 -37 69 -213 343 -270 436
-284 459 -9 15 -116 188 -237 384 -122 196 -223 362 -224 369 -2 8 13 13 42
15 56 4 202 14 255 18 55 5 142 16 191 25 l41 8 104 -169 c57 -92 120 -194
140 -226 49 -78 228 -367 329 -532 46 -74 98 -157 115 -185 18 -27 146 -234
284 -460 139 -225 263 -426 276 -445 12 -19 60 -96 105 -170 117 -190 289
-469 312 -505 10 -16 94 -151 186 -299 l167 -270 323 1 c177 0 325 3 329 7 4
4 2 15 -4 24 -7 9 -44 69 -83 132 -39 63 -95 153 -124 200 -71 114 -520 839
-566 915 -21 33 -178 287 -350 565 -172 278 -320 517 -329 532 -19 32 -91 149
-399 645 l-230 373 61 19 c78 24 253 87 292 105 90 42 109 47 121 34 7 -7 108
-168 225 -358 116 -190 227 -367 244 -395 18 -27 93 -149 167 -270 196 -319
496 -804 523 -845 12 -19 96 -154 185 -300 159 -259 183 -298 229 -370 12 -19
158 -255 324 -524 l303 -489 327 0 c180 0 329 2 331 4 2 2 -47 85 -108 184
-130 210 -411 663 -504 815 -71 115 -100 161 -307 495 -77 124 -147 238 -155
253 -8 15 -18 29 -21 32 -3 3 -12 16 -19 30 -7 14 -27 48 -45 75 -17 28 -50
79 -72 115 -22 36 -69 112 -105 170 -36 58 -114 184 -173 280 -60 96 -207 335
-328 530 -551 891 -522 843 -503 854 10 6 75 49 144 95 377 249 726 570 1016
936 100 125 287 403 368 547 168 295 329 684 414 1002 29 106 90 390 99 456 3
25 7 56 9 70 3 14 8 54 11 90 4 36 9 72 10 80 25 137 25 765 1 896 -2 10 -7
48 -11 84 -4 36 -9 73 -11 84 -2 10 -6 44 -10 75 -3 31 -8 59 -10 62 -2 3 -6
21 -9 40 -105 629 -420 1333 -830 1860 -495 636 -1122 1110 -1853 1400 -240
96 -568 191 -771 224 -19 3 -37 7 -40 9 -3 2 -26 7 -51 10 -43 6 -73 11 -130
21 -14 2 -56 7 -95 11 -38 3 -79 8 -90 10 -56 11 -587 27 -598 18z"/>
<path d="M5737 10834 c-1 -1 -45 -5 -97 -8 -52 -4 -108 -9 -125 -11 -16 -2
-50 -7 -75 -10 -39 -4 -135 -21 -235 -40 -275 -53 -632 -190 -918 -351 -75
-43 -275 -171 -287 -184 -3 -3 -23 -19 -46 -35 -157 -115 -383 -327 -529 -499
-114 -134 -260 -343 -340 -486 -51 -92 -154 -300 -148 -300 3 0 -1 -10 -9 -22
-43 -66 -178 -499 -202 -648 -3 -19 -8 -46 -10 -60 -8 -41 -16 -98 -21 -148
-3 -26 -8 -63 -10 -82 -3 -19 -7 -69 -11 -110 -4 -54 -8 -7391 -5 -7767 l1
-53 330 0 330 0 1 48 c0 26 1 1786 3 3912 1 2126 5 3876 9 3890 3 14 11 66 17
115 52 417 254 883 536 1235 87 109 275 297 384 384 358 287 839 495 1255 542
33 3 69 9 80 11 49 11 438 9 535 -2 591 -71 1091 -310 1507 -720 384 -379 621
-830 722 -1370 41 -216 48 -569 15 -785 -7 -50 -23 -141 -30 -170 -3 -14 -7
-36 -10 -49 -3 -14 -7 -28 -9 -31 -2 -4 -7 -22 -10 -40 -3 -19 -26 -94 -51
-168 -191 -572 -580 -1056 -1104 -1374 -232 -140 -550 -264 -805 -313 -154
-29 -336 -47 -480 -47 -108 0 -293 10 -304 16 -3 2 -33 7 -66 10 -33 3 -86 12
-118 20 -31 7 -59 11 -61 7 -6 -11 -4 -671 3 -672 3 0 13 -2 21 -4 8 -1 35 -6
60 -9 25 -4 56 -9 70 -11 119 -20 493 -27 680 -12 58 5 107 10 110 12 3 2 33
7 65 10 33 4 62 9 65 10 3 2 24 6 46 9 92 14 134 24 272 62 328 91 616 220
897 402 66 42 247 174 271 197 6 5 41 35 77 65 136 113 358 349 470 502 58 79
167 237 167 243 0 1 18 32 39 67 59 97 152 288 209 428 71 175 152 448 168
565 3 22 9 56 14 75 8 31 13 65 24 165 27 230 28 552 2 750 -3 22 -8 60 -11
85 -12 97 -38 223 -75 366 -161 617 -517 1188 -1000 1604 -74 63 -103 87 -185
149 -22 17 -44 34 -50 39 -30 23 -222 145 -300 189 -212 121 -484 231 -745
302 -114 31 -297 67 -390 76 -30 4 -62 8 -70 10 -41 11 -504 28 -513 19z"/>
<path d="M5735 9598 c-88 -6 -135 -13 -250 -34 -280 -51 -596 -199 -840 -392
-91 -72 -246 -228 -317 -318 -210 -266 -357 -601 -404 -921 -3 -26 -9 -57 -13
-68 -3 -11 -7 -1781 -8 -3932 l-3 -3913 332 0 333 0 1 3822 c0 2103 3 3863 7
3912 16 200 99 433 215 601 252 365 645 576 1077 579 229 2 404 -39 601 -140
485 -246 767 -764 711 -1305 -51 -490 -384 -917 -847 -1087 -170 -63 -256 -77
-455 -77 -177 0 -318 25 -450 80 -16 7 -42 17 -56 23 l-26 10 -1 -354 c0 -387
-4 -356 55 -369 10 -2 50 -10 88 -19 369 -78 768 -46 1120 92 468 183 852 540
1070 997 95 200 154 410 180 645 15 134 10 358 -10 480 -4 19 -8 47 -10 63
-20 142 -96 368 -181 540 -285 575 -860 987 -1494 1072 -132 18 -287 23 -425
13z"/>
</g>
</svg>
