<?xml version="1.0" standalone="no"?>
<!DOCTYPE svg PUBLIC "-//W3C//DTD SVG 20010904//EN"
 "http://www.w3.org/TR/2001/REC-SVG-20010904/DTD/svg10.dtd">
<svg version="1.0" xmlns="http://www.w3.org/2000/svg"
 width="1201.000000pt" height="1201.000000pt" viewBox="0 0 1201.000000 1201.000000"
 preserveAspectRatio="xMidYMid meet">
<metadata>
Created by potrace 1.11, written by Peter Selinger 2001-2013
</metadata>
<g transform="translate(0.000000,1201.000000) scale(0.100000,-0.100000)"
fill="#000000" stroke="none">
<path d="M6125 10256 c-110 -51 -229 -107 -265 -123 -36 -17 -171 -80 -300
-140 -129 -61 -260 -122 -290 -136 -30 -14 -98 -45 -150 -70 -96 -45 -171 -80
-290 -135 -36 -16 -110 -51 -165 -77 -55 -26 -154 -72 -220 -102 -66 -31 -163
-76 -215 -100 -52 -25 -151 -71 -220 -103 -69 -32 -168 -78 -220 -103 -52 -25
-187 -88 -300 -140 -113 -52 -245 -114 -295 -137 -49 -23 -184 -86 -300 -140
-115 -54 -259 -121 -319 -149 -59 -28 -111 -51 -115 -51 -3 0 -17 -9 -31 -20
l-25 -19 -5 -266 -5 -266 -225 -105 c-260 -122 -313 -146 -395 -184 -74 -34
-174 -81 -329 -154 -65 -31 -119 -56 -121 -56 -20 0 -277 -135 -284 -149 -8
-14 -11 -664 -11 -2105 0 -1885 2 -2086 16 -2100 25 -26 42 -32 184 -66 74
-17 306 -74 515 -125 209 -51 504 -123 655 -160 151 -37 419 -102 595 -145
356 -87 1022 -250 1045 -255 25 -6 548 -133 989 -241 57 -14 111 -27 120 -29
9 -2 88 -22 176 -44 88 -22 219 -54 290 -71 72 -17 240 -58 375 -91 135 -33
310 -76 390 -95 80 -19 255 -62 388 -95 134 -32 254 -59 266 -59 12 0 58 17
101 39 44 21 172 83 285 136 113 54 252 120 310 148 58 27 150 71 205 97 55
26 154 74 220 105 66 32 161 77 210 100 50 23 200 95 335 160 135 65 277 133
317 151 40 19 139 66 220 105 81 39 184 88 228 109 44 21 130 61 190 90 61 29
146 69 190 90 44 21 139 66 210 100 72 34 176 84 233 111 56 27 148 71 205 98
56 27 165 79 242 116 77 37 157 73 177 82 74 30 68 -172 68 2162 0 1984 -1
2100 -17 2119 -15 17 -216 67 -1118 277 -605 141 -1163 271 -1240 289 l-140
32 -5 693 -5 693 -24 19 c-13 10 -31 19 -41 19 -10 0 -110 -43 -221 -95 -111
-52 -206 -95 -211 -95 -4 0 -8 63 -8 139 0 139 0 140 -26 160 -43 34 -29 38
-328 -103 -65 -30 -125 -57 -134 -58 -14 -3 -16 15 -17 140 -1 131 -3 144 -22
164 -31 31 -65 25 -178 -27 -55 -26 -138 -65 -185 -87 -143 -67 -127 -77 -125
75 2 146 -9 193 -50 203 -30 8 -47 2 -179 -61 -203 -97 -269 -126 -274 -121
-3 3 -5 66 -4 140 0 121 -2 138 -20 161 -32 41 -66 33 -283 -69z"/>
</g>
</svg>
